
<svg xmlns="http://www.w3.org/2000/svg" xml:space="preserve" viewBox="0 0 335.7 46.6"><path fill="#F8003C" d="M1.7 28.1h14.7c.7 0 1.2-.4 1.5-.9.1-.2.2-.5.2-.8v-6.2c0-1-.8-1.7-1.7-1.7H1.7c-1 0-1.7.8-1.7 1.7v6.2c0 .9.8 1.7 1.7 1.7z"/><path fill="#27334F" d="M33.6 14.4c0-1.8.4-3.5 1.2-5v-.2l-7.4 8.9c-.9 1.1-1.4 2.3-1.6 3.6-.3 2.1.2 4.3 1.6 6.1l3.5 4.2 2.3 2.8 4.9 5.9 2.7 3.3 1.4 1.7c.4.5 1 .7 1.6.8.3 0 .6-.1.9-.2.3-.1.5-.3.7-.5l.2-.2 3.9-3.8c.8-.8.9-2.1.1-2.9l-1.2-1.5-4.2-5.1-5.9-7c-.5-.6-.8-1.4-.8-2.2-.1-.1-.1-.2-.2-.3-2.2-2-3.7-5-3.7-8.4z"/><path fill="#FA0" d="M49.9 6.3c0-.5-.2-.9-.6-1.3L45.1.7c-.3-.3-.7-.5-1.1-.6-.2-.1-.4-.1-.6-.1-.6 0-1.2.3-1.6.8l-3.7 4.5-3.3 3.9v.2c-.8 1.5-1.2 3.2-1.2 5 0 3.4 1.5 6.4 3.9 8.4.1.1.1.2.2.3 0-.8.3-1.6.8-2.3l10.9-13c.4-.4.5-1 .5-1.5z"/><linearGradient id="a" x1="33.435" x2="39.054" y1="19.63" y2="12.734" gradientUnits="userSpaceOnUse"><stop offset="0" style="stop-color:#000"/><stop offset=".145" style="stop-color:#303030"/><stop offset=".381" style="stop-color:#797979"/><stop offset=".593" style="stop-color:#b2b2b2"/><stop offset=".774" style="stop-color:#dcdcdc"/><stop offset=".915" style="stop-color:#f6f6f6"/><stop offset="1" style="stop-color:#fff"/></linearGradient><path fill="url(#a)" d="M49.9 6.3c0-.5-.2-.9-.6-1.3L45.1.7c-.3-.3-.7-.5-1.1-.6-.2-.1-.4-.1-.6-.1-.6 0-1.2.3-1.6.8l-3.7 4.5-3.3 3.9v.2c-.8 1.5-1.2 3.2-1.2 5 0 3.4 1.5 6.4 3.9 8.4.1.1.1.2.2.3 0-.8.3-1.6.8-2.3l10.9-13c.4-.4.5-1 .5-1.5z" opacity=".3"/><path fill="#F8003C" d="M13.7 35.7h-12c-.2 0-.4 0-.6.1-.6.2-1.1.9-1.1 1.6v6.2c0 1 .8 1.7 1.7 1.7h3.7c1.5-4.1 4.5-7.6 8.3-9.6"/><path fill="#F8003C" d="M5.5 45.4H26c1 0 1.7-.8 1.7-1.7v-6.2c0-1-.8-1.7-1.7-1.7H13.8c-3.9 1.9-6.9 5.4-8.3 9.6z"/><linearGradient id="b" x1="5.452" x2="27.762" y1="40.524" y2="40.524" gradientUnits="userSpaceOnUse"><stop offset="0" style="stop-color:#000"/><stop offset=".145" style="stop-color:#303030"/><stop offset=".381" style="stop-color:#797979"/><stop offset=".593" style="stop-color:#b2b2b2"/><stop offset=".774" style="stop-color:#dcdcdc"/><stop offset=".915" style="stop-color:#f6f6f6"/><stop offset="1" style="stop-color:#fff"/></linearGradient><path fill="url(#b)" d="M5.5 45.4H26c1 0 1.7-.8 1.7-1.7v-6.2c0-1-.8-1.7-1.7-1.7H13.8c-3.9 1.9-6.9 5.4-8.3 9.6z" opacity=".4"/><path fill="#0099AC" d="M25.9 1.2h-3.6c-1.5 4.2-4.5 7.6-8.3 9.7h12c.2 0 .4 0 .6-.1.7-.2 1.2-.9 1.2-1.6V2.9c0-.9-.8-1.7-1.9-1.7"/><path fill="#0099AC" d="M22.3 1.2H1.7C.8 1.2 0 2 0 2.9v6.2c0 1 .8 1.7 1.7 1.7H14c3.9-2 6.8-5.4 8.3-9.6z"/><linearGradient id="c" x1="-805.46" x2="-783.151" y1="764.827" y2="764.827" gradientTransform="rotate(180 -391.575 385.424)" gradientUnits="userSpaceOnUse"><stop offset="0" style="stop-color:#000"/><stop offset=".145" style="stop-color:#303030"/><stop offset=".381" style="stop-color:#797979"/><stop offset=".593" style="stop-color:#b2b2b2"/><stop offset=".774" style="stop-color:#dcdcdc"/><stop offset=".915" style="stop-color:#f6f6f6"/><stop offset="1" style="stop-color:#fff"/></linearGradient><path fill="url(#c)" d="M22.3 1.2H1.7C.8 1.2 0 2 0 2.9v6.2c0 1 .8 1.7 1.7 1.7H14c3.9-2 6.8-5.4 8.3-9.6z" opacity=".4"/><path fill="none" d="M189.8 19.9c-1.7 0-3.1.5-4.3 1.5-1.1.9-1.8 2.2-2 3.7h12.9c-.3-1.6-1-2.8-2-3.7-1.3-1-2.8-1.5-4.6-1.5zM117.4 19.9c-1.7 0-3.1.5-4.3 1.5-1.1.9-1.8 2.2-2 3.7H124c-.3-1.6-1-2.8-2-3.7-1.3-1-2.8-1.5-4.6-1.5z"/><path fill="#252525" d="M73.5 26.2h14.1v-5.7H73.5v-9h17.1V5.7H67v35.7h24.2v-5.8H73.5zM94.6 5.7h6.1v35.8h-6.1zM123.9 16.3c-1.9-1-4.2-1.5-6.7-1.5s-4.7.6-6.7 1.7c-1.9 1.1-3.5 2.7-4.5 4.8-1.1 2-1.6 4.4-1.6 7.1 0 2.7.6 5 1.7 7s2.7 3.6 4.7 4.7 4.4 1.7 7.2 1.7c3.1 0 5.8-.9 7.9-2.6 2.1-1.7 3.4-3.9 3.9-6.6l.1-.4h-6.1l-.1.3c-.3 1.3-1 2.4-2.1 3.1-1.1.7-2.4 1.1-4 1.1-2 0-3.6-.6-4.8-1.8-1.2-1.2-1.9-2.9-2-5H130v-.3c.1-.7.2-1.4.2-2.1 0-2.5-.6-4.8-1.7-6.6-1.2-2.1-2.7-3.5-4.6-4.6zM111 25.1c.3-1.5.9-2.7 2-3.7 1.2-1 2.7-1.5 4.3-1.5 1.8 0 3.3.5 4.5 1.5 1.1.9 1.8 2.1 2 3.7H111zM163.7 14.8c-2.1 0-4 .4-5.5 1.3-1.3.7-2.4 1.8-3.3 3-.7-1.3-1.8-2.4-3-3.1-1.4-.8-3.1-1.2-4.9-1.2-3 0-5.4 1.1-7.3 3.2l-.5-2.9-5.4 2v24.4h6.1V27.4c0-2.2.5-4 1.5-5.3 1-1.3 2.4-1.9 4.1-1.9 1.7 0 2.9.5 3.7 1.6.9 1.1 1.3 2.7 1.3 4.9v14.8h6.2V27.2c0-2.2.5-3.9 1.5-5.2 1-1.2 2.4-1.8 4.1-1.8 1.7 0 2.9.5 3.7 1.6.8 1.1 1.3 2.7 1.3 4.9v14.8h6.2V26.6c0-4.1-.9-7.1-2.8-9-1.7-1.9-4.1-2.8-7-2.8zM196.3 16.3c-1.9-1-4.2-1.5-6.7-1.5s-4.7.6-6.7 1.7c-1.9 1.1-3.5 2.7-4.5 4.8-1.1 2-1.6 4.4-1.6 7.1 0 2.7.6 5 1.7 7s2.7 3.6 4.7 4.7 4.4 1.7 7.2 1.7c3.1 0 5.8-.9 7.9-2.6 2.1-1.7 3.4-3.9 3.9-6.6l.1-.4h-6.1l-.1.3c-.3 1.3-1 2.4-2.1 3.1-1.1.7-2.4 1.1-4 1.1-2 0-3.6-.6-4.8-1.8-1.2-1.2-1.9-2.9-2-5h19.2v-.3c.1-.7.2-1.4.2-2.1 0-2.5-.6-4.8-1.7-6.6-1.1-2.1-2.6-3.5-4.6-4.6zm-12.9 8.8c.3-1.5.9-2.7 2-3.7 1.2-1 2.7-1.5 4.3-1.5 1.8 0 3.3.5 4.5 1.5 1.1.9 1.8 2.1 2 3.7h-12.8zM220.1 14.8c-3.3 0-6 1.1-8 3.2l-.5-2.9-5.4 2v24.4h6.1V28.2c0-2.5.6-4.5 1.7-5.9 1.2-1.4 2.7-2.1 4.7-2.1 1.9 0 3.3.6 4.3 1.8 1 1.2 1.5 3 1.5 5.3v14.2h6.2V27c0-4.2-1-7.3-3-9.3-1.9-1.9-4.5-2.9-7.6-2.9zM243.3 35.4c-.3-.3-.5-1-.5-1.9v-13h6.2V15h-6.2V7.9l-6.2 2v5.2h-2.5l-2 5.5h4.5v13.5c0 2.5.6 4.3 1.8 5.5 1.2 1.2 3.1 1.8 5.6 1.8h5.6v-5.5h-4.5c-.9 0-1.5-.1-1.8-.5zM268.7 26.4c-1.5-.5-3.4-.9-5.6-1.1-1.6-.2-2.8-.4-3.5-.5-.7-.1-1.2-.4-1.7-.7-.4-.3-.6-.8-.6-1.4 0-.9.4-1.6 1.3-2.1.9-.6 2.1-.8 3.6-.8s2.7.4 3.7 1.1c1 .7 1.5 1.5 1.6 2.6v.3h6v-.4c-.2-2.7-1.3-4.8-3.4-6.3-2.1-1.5-4.8-2.2-8.1-2.2-2 0-3.8.3-5.4 1-1.6.7-2.9 1.7-3.8 2.9-.9 1.3-1.4 2.8-1.4 4.4 0 1.8.5 3.2 1.4 4.2.9 1 2.2 1.8 3.7 2.3 1.5.5 3.3.8 5.6 1.1 1.6.2 2.8.4 3.6.6.7.2 1.3.4 1.7.8.4.4.6.9.6 1.7 0 .9-.4 1.6-1.3 2.2-1 .6-2.2.9-3.8.9-1.7 0-3.2-.4-4.3-1.2-1.1-.8-1.6-1.8-1.7-3v-.3H251v.4c.1 2.8 1.2 5.1 3.4 6.7 2.2 1.6 5 2.4 8.5 2.4 2.1 0 4-.3 5.6-1 1.7-.7 3-1.7 4-2.9 1-1.3 1.5-2.8 1.5-4.5 0-1.9-.5-3.4-1.4-4.5-1.1-1.4-2.4-2.2-3.9-2.7zM308.1 5.7h-8l-15.5 17.4V5.7h-6.5v35.7h6.5V32l5.7-6.3 10.8 15.7h7.8l-14-20.7z"/><path fill="#F8003C" d="M313.5 4.8c-1 0-1.9.3-2.6 1-.7.7-1.1 1.6-1.1 2.6s.4 1.9 1.1 2.6c.7.7 1.6 1 2.6 1s1.9-.3 2.6-1c.7-.7 1.1-1.6 1.1-2.6s-.4-1.9-1.1-2.6c-.7-.6-1.6-1-2.6-1z"/><path fill="#252525" d="M310.4 15.1h6.2v26.4h-6.2zM331.3 35.9c-.9 0-1.5-.2-1.8-.5-.3-.3-.5-1-.5-1.9v-13h6.2V15H329V7.9l-6.2 2v5.2h-2.5l-2 5.5h4.5v13.5c0 2.5.6 4.3 1.8 5.5 1.2 1.2 3.1 1.8 5.6 1.8h5.6v-5.5h-4.5z"/></svg>