
<svg xmlns="http://www.w3.org/2000/svg" fill="none" viewBox="0 0 120 26"><path fill="#12141C" d="M35 16.905c0 2-1.3 3-2.8 3-1.5 0-2.5-1.1-2.5-2.8v-8.6h-4.1v9.3c0 3.4 2 5.5 4.9 5.5 2.2 0 3.8-1.1 4.4-2.8h.1v2.7h3.9v-14.7H35v8.4ZM48.7 20.005c-.8 0-1.4-.3-1.4-1.4v-7.1h2.8v-3h-2.7v-3.5h-4.1v3.5h-2v3h2v7.6c0 2.9 1.9 4.3 4.9 4.2.7 0 1.5-.2 2.2-.4l-.6-3c-.4.1-.7.1-1.1.1ZM59.1 8.206c-4.3 0-7.1 3.1-7.1 7.6 0 4.6 2.8 7.5 7.3 7.5 3.6 0 6.1-1.8 6.6-4.5l-3.8-.2c-.4 1.1-1.5 1.7-2.8 1.7-2 0-3.3-1.3-3.3-3.5h10v-1.1c0-5.1-3.1-7.5-6.9-7.5Zm-3.1 6c.1-1.7 1.4-3 3.2-3 1.8 0 3 1.3 3 3H56ZM77 8.505c-2.2 0-3.7 1.1-4.4 2.8h-.2v-2.6h-3.9v14.6h4.1v-8.5c0-1.9 1.1-3 2.8-3 1.7 0 2.6 1.1 2.6 2.9v8.6h4.1v-9.3c0-3.4-2-5.5-5.1-5.5ZM101.7 3.806h-5l-7 8.6h-.2v-8.6h-4.2v19.5h4.2v-5.6l2-2.4 5.3 8h5l-7.4-10.8 7.3-8.7ZM108.8 8.706h-4.1v14.6h4.1v-14.6ZM119.4 19.905c-.3.1-.7.1-1 .1-.8 0-1.4-.3-1.4-1.4v-7.1h2.8v-3H117v-3.5h-4.1v3.5h-2v3h2v7.6c0 2.9 1.9 4.3 4.9 4.2.7 0 1.5-.2 2.2-.4l-.6-3Z"/><path fill="url(#a)" d="M106.7 2.005c-1.2 0-2.2.9-2.2 2s1 2.1 2.2 2.1c1.2 0 2.2-.9 2.2-2.1 0-1.2-1-2-2.2-2Z"/><path fill="url(#b)" d="M22.7 8.005c-.4-.3-1-.4-1.5-.3-.5.1-1 .4-1.3.9-1.4 2.2-4.7 2.3-4.7 2.3h-.1c-5.2 0-7.2 4.5-7.3 4.7-.4 1 0 2.2 1 2.6.2.1.5.2.8.2.8 0 1.5-.5 1.9-1.2.5-.9 1.2-1.6 2.2-2v3.6c-.1.7-.5 1.3-1.1 1.7-.7.5-1.8.8-3.1.8-1.5 0-2.7-.5-3.6-1.5-.9-1-1.4-2.6-1.4-4.6v-5.4c.1-1.8.5-3.1 1.4-4 .9-1 2.1-1.5 3.6-1.5 1.3 0 2.3.3 3.1.8.6.4 1 1.1 1.1 1.9v.1c0 1.3 1 2.3 2.3 2.3 1.3 0 2.3-1 2.3-2.3v-.5c-.1-1-.4-1.9-.9-2.7-.5-.8-1.1-1.6-1.9-2.1-1.6-1.2-3.6-1.8-6-1.8-2.8 0-5.1 1-6.9 2.8-1.6 1.8-2.5 4.1-2.6 6.8v5.5c0 3 .9 5.5 2.6 7.4 1.7 1.9 4.1 2.8 6.9 2.8 2.3 0 4.3-.6 5.9-1.7 1.5-1 2.5-2.6 2.7-4.4l.1-4.9c1.6-.5 3.6-1.5 4.9-3.5.3-.4.5-1 .4-1.5 0-.5-.4-1-.8-1.3Z"/><path fill="url(#c)" d="M13.7 6.806c0 1.3 1 2.4 2.3 2.4 1.3 0 2.3-1 2.3-2.3v-.3c-.1-1-.4-1.9-.9-2.7-.5-.8-.9-1.3-1.9-2.1-2.6-2-6-1.8-6-1.8 3.4 1.3 4.2 5.6 4.2 6.8Z"/><path fill="url(#d)" d="M22.7 8.005c-.4-.3-1-.4-1.5-.3-.5.1-1 .4-1.3.9-1.4 2.2-4.7 2.3-4.7 2.3h-.1c-5.2 0-7.2 4.5-7.3 4.7-.4 1 0 2.2 1 2.6.2.1.5.2.8.2.8 0 1.5-.5 1.9-1.2 0-.1.8-1.5 2.2-2 1.7-.6 2.5-.1 4.6-.8 1.6-.5 3.6-1.5 4.9-3.5.3-.4.5-1 .4-1.5-.1-.6-.5-1.1-.9-1.4Z"/><path fill="url(#e)" d="M22.7 8.005c-.4-.3-1-.4-1.5-.3-.5.1-1 .4-1.3.9-1.4 2.2-4.8 2.3-4.8 2.3 3.5-.6 5 4.5 8.1 0 .3-.4.5-1 .4-1.5-.1-.6-.5-1.1-.9-1.4Z"/><defs><linearGradient id="a" x1="106.707" x2="106.707" y1="2.029" y2="6.132" gradientUnits="userSpaceOnUse"><stop stop-color="#FC9257"/><stop offset="1" stop-color="#F05A24"/></linearGradient><linearGradient id="b" x1="0" x2="23.584" y1="12.661" y2="12.661" gradientUnits="userSpaceOnUse"><stop stop-color="#007BFF"/><stop offset="1" stop-color="#221377"/></linearGradient><linearGradient id="c" x1="13.833" x2="18.826" y1="3.224" y2="10.396" gradientUnits="userSpaceOnUse"><stop stop-color="#007BFF"/><stop offset="1" stop-color="#221377"/></linearGradient><linearGradient id="d" x1="9.214" x2="22.245" y1="16.89" y2="8.4" gradientUnits="userSpaceOnUse"><stop stop-color="#FC9257"/><stop offset="1" stop-color="#F05A24"/></linearGradient><linearGradient id="e" x1="21.105" x2="18.23" y1="9.835" y2="11.69" gradientUnits="userSpaceOnUse"><stop stop-color="#FFA44D"/><stop offset="1" stop-color="#FBD06A"/></linearGradient></defs></svg>