<svg xmlns="http://www.w3.org/2000/svg" fill="none" viewBox="0 0 373 73">
	<path fill="#374A5E" d="M76.05 26.159c4.8-4.7 9.1-9.1 11.8-11.8l2.9-2.9c1.2-1.2 1.7-3 1.3-4.6-.2-.6-.4-1.2-.8-1.8-.1-.2-.3-.3-.5-.5-.7-.6-1.8-1-2.6-1.4-1.2-.5-2.4-.9-3.6-1.4-18.6-6.7-30.2 7.9-30.2 7.9l-8.5 8.5-9.9 9.9-8.3 8.1-21.1 20.7-.2.2c-1 1.1-1 2.7 0 3.8 1.1 1 2.7 1 3.8 0l7.8-8 1.4-1.4 2-2.1c1-1.1 2.7-1.1 3.8 0 1.1 1 1.1 2.7 0 3.8l-2 2.1-1.7 1.7c-.6.6-.8 1.3-.7 2.1 0 .6.3 1.2.8 1.7s1.1.7 1.8.7 1.4-.2 2-.8c1-1.1 2.7-1.1 3.8 0 .9.9 1 2.3.3 3.3-.1.2-.2.3-.3.5l-2 2.1-1.7 1.7c-1 1.1-1 2.7 0 3.8 1.1 1 2.7 1 3.8 0l6.8-6.3 21.6-20.1-.4-.4 3-3 15.8-16.1Z"/>
	<path fill="#374A5E" d="m38.05 26.059-10.3 10.1s10.9 16.7 8.3 29.4l21.6-20.1-19.6-19.4Z"/>
	<path fill="url(#a)" d="m38.05 26.059-10.3 10.1s10.9 16.7 8.3 29.4l21.6-20.1-19.6-19.4Z" opacity=".15"/>
	<path fill="#374A5E" d="m27.75 36.159-21.1 20.7-.2.2c-1 1.1-1 2.7 0 3.8 1.1 1 2.7 1 3.8 0l7.8-8 1.3-1.4 2-2.1c1-1.1 2.7-1.1 3.8 0 1.1 1 1.1 2.7 0 3.8l-2 2.1-1.7 1.7c-.6.6-.8 1.3-.7 2.1 0 .6.3 1.2.8 1.7s1.1.7 1.8.7 1.4-.2 2-.8c1-1.1 2.7-1.1 3.8 0 .9.9 1 2.3.3 3.3-.1.2-.2.3-.3.5l-2 2.1-1.7 1.7c-1 1.1-1 2.7 0 3.8 1.1 1 2.7 1 3.8 0l6.8-6.3c2.6-12.8-8.3-29.6-8.3-29.6Zm-26.8 26.6-.2.2c-1 1.1-1 2.7 0 3.8 1.1 1 2.7 1 3.8 0l.2-.2c1-1.1 1-2.7 0-3.8-1.1-1-2.8-1-3.8 0Z"/>
	<path fill="#374A5E" d="m16.25 62.359-2.8 2.9c-1 1.1-1 2.7 0 3.8 1.1 1 2.7 1 3.8 0l2.8-2.9c1-1.1 1-2.7 0-3.8-1-1.1-2.7-1.1-3.8 0Zm59.8-36.2c-10.9-.2-21.1-3.1-30.1-8l-9.9 9.9c10.4 6 12.3 20.6 12.7 25.6l11.5-11.5 15.8-16Z"/>
	<path fill="#374A5E" d="M54.45 9.659s11.6-14.6 30.2-7.9c1.2.4 2.4.8 3.6 1.4.8.4 1.8.8 2.6 1.4l.5.5c.4.5.7 1.1.8 1.8.4 1.6-.1 3.4-1.3 4.6l-2.9 2.9c-8.2 3.6-17.3 5.6-26.8 5.6-5.2 0-10.3-.6-15.1-1.7l8.4-8.6Z"/>
	<path fill="#374A5E" d="M61.15 19.859c9.5 0 18.6-2 26.8-5.6l-11.8 11.8c-10.9-.2-21.1-3.1-30.1-8 4.8 1.2 9.9 1.8 15.1 1.8Z"/>
	<path fill="url(#b)" d="M61.15 19.859c9.5 0 18.6-2 26.8-5.6l-11.8 11.8c-10.9-.2-21.1-3.1-30.1-8 4.8 1.2 9.9 1.8 15.1 1.8Z" opacity=".15"/>
	<path fill="url(#c)" d="M54.45 9.659s11.6-14.6 30.2-7.9c1.2.4 2.4.8 3.6 1.4.8.4 1.8.8 2.6 1.4l.5.5c.4.5.7 1.1.8 1.8.4 1.6-.1 3.4-1.3 4.6l-2.9 2.9c-8.2 3.6-17.3 5.6-26.8 5.6-5.2 0-10.3-.6-15.1-1.7l8.4-8.6Z" opacity=".2"/>
	<path stroke="url(#d)" stroke-miterlimit="10" stroke-width=".289" d="M87.95 14.36c-8.2 3.6-17.3 5.6-26.8 5.6-5.2 0-10.3-.6-15.1-1.7" opacity=".15"/>
	<path stroke="url(#e)" stroke-miterlimit="10" stroke-width=".289" d="M76.05 26.159c-10.9-.2-21.1-3.1-30.1-8" opacity=".15"/>
	<path stroke="url(#f)" stroke-miterlimit="10" stroke-width=".289" d="M27.75 36.159s10.9 16.7 8.3 29.4" opacity=".15"/>
	<path fill="url(#g)" d="M46.45 18.86c-.1-.2-.2-.3-.3-.5 2.8 1.5 5.4 3.5 7.7 5.8l37.1 37c1.8 1.8 1.7 4.9-.2 6.6-.6.5-1.2.8-1.9 1.1-2.5 1.1-5 2.2-7.7 2.8-2.8.6-5.6.8-8.5.5-.5-7.5-4.1-31.5-26.2-53.3Z"/>
	<path fill="url(#h)" d="M46.45 18.86c-.1-.2-.2-.3-.3-.5 2.8 1.5 5.4 3.5 7.7 5.8l37.1 37c1.8 1.8 1.7 4.9-.2 6.6-.6.5-1.2.8-1.9 1.1-2.5 1.1-5 2.2-7.7 2.8-2.8.6-5.6.8-8.5.5-.5-7.5-4.1-31.5-26.2-53.3Z" opacity=".4"/>
	<path fill="url(#i)" d="M16.15 21.359c.2-.6.4-1.2.8-1.8.1-.2.3-.3.5-.5.7-.6 1.8-1 2.6-1.4 1.2-.5 2.3-1 3.6-1.4 2.9-.9 5.9-1.3 8.9-1.3 2.6.1 5.3.5 7.8 1.1 1.9.5 3.7 1.2 5.4 2 .3.2.5.5.7.7 4.8 7.6 12.8 24 8.9 44.8-5.7-5.7-37.9-37.7-37.9-37.7-1.2-1.1-1.7-2.9-1.3-4.5Z"/>
	<path fill="url(#j)" d="M16.15 21.359c.2-.6.4-1.2.8-1.8.1-.2.3-.3.5-.5.7-.6 1.8-1 2.6-1.4 1.2-.5 2.3-1 3.6-1.4 2.9-.9 5.9-1.3 8.9-1.3 2.6.1 5.3.5 7.8 1.1 1.9.5 3.7 1.2 5.4 2 .3.2.5.5.7.7 4.8 7.6 12.8 24 8.9 44.8-5.7-5.7-37.9-37.7-37.9-37.7-1.2-1.1-1.7-2.9-1.3-4.5Z" opacity=".4"/>
	<path fill="url(#k)" d="M46.45 18.86c22.2 21.8 25.7 45.8 26.2 53.4-.2 0-.3 0-.5-.1-3-.3-5.9-1.2-8.6-2.5-2.7-1.3-5.3-3.1-7.4-5.2 0 0-.3-.3-.9-.8 3.9-20.8-4-37.2-8.8-44.8Z"/>
	<path stroke="url(#l)" stroke-miterlimit="10" stroke-width=".578" d="M46.45 18.86c22.2 21.8 25.7 45.8 26.2 53.4" opacity=".3"/>
	<path fill="url(#m)" d="M46.45 18.86c1.1 1.6 2.1 3.3 3 5 .9 1.7 1.8 3.5 2.5 5.3 1.5 3.6 2.6 7.4 3.4 11.2.8 3.8 1.2 7.7 1.2 11.7 0 3.9-.5 7.8-1.2 11.6.6-3.9.8-7.7.8-11.6-.1-3.9-.5-7.8-1.3-11.5-1.6-7.6-4.5-14.9-8.4-21.7Z" opacity=".3"/>
	<path fill="#374A5E" d="m.95 62.759-.2.2c-1 1.1-1 2.7 0 3.8 1.1 1 2.7 1 3.8 0l.2-.2c1-1.1 1-2.7 0-3.8-1-1.1-2.8-1-3.8 0Zm15.3-.4-2.8 2.9c-1 1.1-1 2.7 0 3.8 1.1 1 2.7 1 3.8 0l2.8-2.9c1-1.1 1-2.7 0-3.8-1-1.1-2.7-1.1-3.8 0Zm104.426-38.185-10 13.189 10.435 13.768h-7.536l-6.667-8.84-6.667 8.84h-7.39l10.289-13.623-10-13.334h7.391l6.377 8.406 6.232-8.405h7.536Zm8.261 23.478v8.261c0 1.015-.58 2.03-1.304 2.609l-3.913 2.753c-.435.29-.87 0-.87-.434V24.174h5.652v3.913c1.884-3.043 4.928-4.493 9.131-4.493 3.913 0 6.956 1.305 9.13 4.058 2.174 2.754 3.334 6.087 3.334 10.145s-1.16 7.392-3.334 10c-2.174 2.754-5.362 4.058-9.13 4.058-4.058 0-6.957-1.45-8.696-4.203Zm-.29-10c0 2.464.725 4.493 2.029 6.232 1.305 1.594 3.189 2.464 5.507 2.464 2.319 0 4.058-.87 5.508-2.464 1.449-1.594 2.029-3.768 2.029-6.087 0-2.464-.725-4.637-2.029-6.232-1.45-1.594-3.189-2.463-5.508-2.463-2.318 0-4.202.87-5.507 2.463-1.304 1.45-2.029 3.623-2.029 6.087Zm43.333 4.638 5.508 1.45c-1.015 2.463-2.609 4.347-4.638 5.797-2.174 1.449-4.638 2.174-7.536 2.174-4.058 0-7.247-1.305-9.71-4.058-2.464-2.609-3.769-6.087-3.769-10.145 0-3.913 1.305-7.392 3.769-10 2.463-2.754 5.652-4.058 9.71-4.058 3.913 0 7.101 1.304 9.565 3.913 2.464 2.608 3.623 5.942 3.623 10v1.884h-20.58c.29 2.174 1.015 3.913 2.319 5.072 1.305 1.305 3.044 1.884 5.218 1.884 3.188.29 5.362-1.159 6.521-3.913Zm-6.666-13.623c-1.884 0-3.623.58-4.783 1.74-1.304 1.159-2.029 2.608-2.319 4.637h14.348c-.29-1.884-1.014-3.478-2.319-4.638-1.304-1.16-3.043-1.739-4.927-1.739Zm35.217 13.623 5.508 1.45c-1.015 2.463-2.609 4.347-4.638 5.797-2.174 1.449-4.638 2.174-7.536 2.174-4.058 0-7.247-1.305-9.71-4.058-2.464-2.609-3.769-6.087-3.769-10.145 0-3.913 1.305-7.392 3.769-10 2.463-2.754 5.652-4.058 9.71-4.058 3.913 0 7.101 1.304 9.565 3.913 2.464 2.608 3.623 5.942 3.623 10v1.884h-20.58c.29 2.174 1.015 3.913 2.319 5.072 1.305 1.305 3.044 1.884 5.218 1.884 3.188.29 5.362-1.159 6.521-3.913Zm-6.811-13.623c-1.884 0-3.623.58-4.783 1.74-1.304 1.159-2.029 2.608-2.319 4.637h14.348c-.29-1.884-1.014-3.478-2.319-4.638-1.304-1.16-2.898-1.739-4.927-1.739Zm36.231-.87V13.304c0-.434.435-.724.87-.434l4.348 3.188c.58.435.869 1.015.869 1.74v33.477h-5.652v-3.913c-1.884 3.044-4.927 4.493-9.13 4.493-3.913 0-6.957-1.304-9.131-4.058-2.174-2.753-3.333-6.087-3.333-10 0-3.913 1.159-7.391 3.333-10.145 2.174-2.753 5.218-4.058 9.131-4.058 3.913 0 6.811 1.45 8.695 4.203Zm.29 9.855c0-2.464-.724-4.637-2.029-6.232-1.304-1.594-3.188-2.463-5.507-2.463-2.319 0-4.058.87-5.507 2.463-1.449 1.595-2.029 3.768-2.029 6.232 0 2.464.725 4.493 2.029 6.087 1.449 1.594 3.188 2.464 5.507 2.464 2.319 0 4.203-.87 5.507-2.464 1.305-1.45 2.029-3.478 2.029-6.087Zm7.826 5.942 5.797-.87c.145 1.16.58 2.174 1.595 2.899 1.014.724 2.319 1.16 4.203 1.16 1.594 0 2.753-.29 3.623-.87.869-.58 1.304-1.305 1.304-2.174 0-1.015-.58-1.74-1.594-2.32a19.413 19.413 0 0 0-3.768-1.159c-1.449-.29-2.899-.58-4.493-1.014-1.449-.29-2.754-1.015-3.913-2.319-1.014-1.16-1.594-2.754-1.594-4.783 0-2.318 1.014-4.347 2.898-5.942 1.884-1.594 4.493-2.463 7.826-2.463 3.189 0 5.508.724 7.247 2.319 1.739 1.594 2.753 3.333 3.188 5.507l-5.797 1.014c-.145-1.014-.58-2.029-1.449-2.753-.87-.725-1.884-1.16-3.333-1.16-1.45 0-2.609.29-3.479.87-.869.58-1.159 1.304-1.159 2.319 0 .87.58 1.594 1.594 2.028a19.42 19.42 0 0 0 3.768 1.16c1.449.29 2.899.725 4.493 1.014 1.449.29 2.754 1.16 3.768 2.32 1.014 1.159 1.594 2.898 1.594 4.927 0 2.464-1.014 4.493-2.898 6.087-2.029 1.594-4.783 2.319-8.406 2.319-3.478 0-6.087-.725-7.971-2.32-1.594-1.304-2.609-3.333-3.044-5.796Zm38.261 2.029v5.362a17.08 17.08 0 0 1-3.188.29c-5.217 0-7.826-2.608-7.826-7.97V29.1h-4.058v-4.927h4.058v-6.087c0-.29.435-.58.724-.29l4.928 3.478c.435.29.58.725.58 1.16v1.884h5.072v4.927h-5.072V42.87c0 2.173 1.014 3.188 3.043 3.188l1.739-.435Zm20.29-5.941V24.174h6.232v26.957h-5.652v-3.478c-.58 1.16-1.594 2.174-3.044 2.898-1.449.725-3.188 1.16-5.217 1.16-3.188 0-5.652-1.015-7.391-2.899-1.739-1.884-2.609-4.493-2.609-7.681V24.174h6.232v16.232c0 4.058 1.739 6.087 5.217 6.087 1.884 0 3.479-.58 4.638-1.739 1.159-1.16 1.594-2.753 1.594-5.072Zm29.565-11.885V13.304c0-.434.435-.724.87-.434l4.638 3.333c.435.29.724.87.724 1.45v33.622h-5.652v-3.913c-1.884 3.044-4.927 4.493-9.13 4.493-3.913 0-6.957-1.304-9.131-4.058-2.174-2.753-3.333-6.087-3.333-10 0-3.913 1.159-7.391 3.333-10.145 2.174-2.753 5.218-4.058 9.131-4.058 3.913 0 6.811 1.45 8.55 4.203Zm.29 9.855c0-2.464-.724-4.637-2.029-6.232-1.304-1.594-3.188-2.463-5.507-2.463-2.319 0-4.058.87-5.507 2.463-1.449 1.595-2.029 3.768-2.029 6.232 0 2.464.724 4.493 2.029 6.087 1.449 1.594 3.188 2.464 5.507 2.464 2.319 0 4.203-.87 5.507-2.464 1.305-1.45 2.029-3.478 2.029-6.087Zm12.609-17.971c-1.159 0-2.029-.29-2.754-1.014-.724-.725-1.159-1.595-1.159-2.754 0-1.16.435-2.029 1.159-2.754.725-.724 1.595-1.159 2.754-1.159s2.029.435 2.754 1.16c.724.724 1.159 1.594 1.159 2.753 0 1.16-.435 2.029-1.159 2.754-.725.724-1.74 1.014-2.754 1.014Zm-3.188 31.45V24.173h6.231V51.13h-6.231Zm22.898.724c-4.203 0-7.536-1.304-10.145-4.058-2.609-2.753-3.913-6.087-3.913-10 0-3.913 1.304-7.246 3.913-10 2.609-2.753 5.942-4.203 10.145-4.203 4.203 0 7.536 1.45 10.145 4.203 2.609 2.754 3.913 6.087 3.913 10 0 3.913-1.304 7.247-3.913 10-2.609 2.609-6.087 4.058-10.145 4.058Zm-7.826-14.203c0 2.609.725 4.638 2.174 6.232 1.449 1.594 3.333 2.319 5.652 2.319s4.203-.725 5.652-2.319c1.45-1.594 2.174-3.623 2.174-6.232 0-2.608-.724-4.637-2.174-6.232-1.449-1.594-3.333-2.319-5.652-2.319s-4.058.87-5.652 2.32c-1.449 1.594-2.174 3.767-2.174 6.231Z"/>
	<defs>
	  <linearGradient id="a" x1="34.966" x2="39.166" y1="65.635" y2="52.127" gradientUnits="userSpaceOnUse">
		<stop stop-color="#fff"/>
		<stop offset="1" stop-color="#fff" stop-opacity="0"/>
	  </linearGradient>
	  <linearGradient id="b" x1="52.292" x2="82.63" y1="20.224" y2="20.224" gradientUnits="userSpaceOnUse">
		<stop stop-color="#fff"/>
		<stop offset="1" stop-color="#fff" stop-opacity="0"/>
	  </linearGradient>
	  <linearGradient id="c" x1="92.174" x2="77.912" y1="5.256" y2="8.323" gradientUnits="userSpaceOnUse">
		<stop stop-color="#fff"/>
		<stop offset="1" stop-color="#fff" stop-opacity="0"/>
	  </linearGradient>
	  <linearGradient id="d" x1="45.91" x2="87.984" y1="17.114" y2="17.114" gradientUnits="userSpaceOnUse">
		<stop offset=".2" stop-color="#fff" stop-opacity="0"/>
		<stop offset=".5" stop-color="#fff"/>
		<stop offset=".8" stop-color="#fff" stop-opacity="0"/>
	  </linearGradient>
	  <linearGradient id="e" x1="45.944" x2="76.085" y1="22.165" y2="22.165" gradientUnits="userSpaceOnUse">
		<stop offset=".2" stop-color="#fff" stop-opacity="0"/>
		<stop offset=".5" stop-color="#fff"/>
		<stop offset=".8" stop-color="#fff" stop-opacity="0"/>
	  </linearGradient>
	  <linearGradient id="f" x1="32.111" x2="32.111" y1="65.659" y2="36.128" gradientUnits="userSpaceOnUse">
		<stop offset=".2" stop-color="#fff" stop-opacity="0"/>
		<stop offset=".5" stop-color="#fff"/>
		<stop offset=".8" stop-color="#fff" stop-opacity="0"/>
	  </linearGradient>
	  <linearGradient id="g" x1="54.975" x2="78.975" y1="23.263" y2="62.069" gradientUnits="userSpaceOnUse">
		<stop stop-color="#FF066C"/>
		<stop offset=".141" stop-color="#FF5227"/>
	  </linearGradient>
	  <linearGradient id="h" x1="39.737" x2="70.711" y1="24.573" y2="55.635" gradientUnits="userSpaceOnUse">
		<stop/>
		<stop offset=".787" stop-opacity="0"/>
	  </linearGradient>
	  <linearGradient id="i" x1="24.497" x2="53.128" y1="14.958" y2="43.658" gradientUnits="userSpaceOnUse">
		<stop stop-color="#FF5227"/>
		<stop offset="1" stop-color="#FF066C"/>
	  </linearGradient>
	  <linearGradient id="j" x1="49.716" x2="37.477" y1="65.179" y2="35.167" gradientUnits="userSpaceOnUse">
		<stop/>
		<stop offset=".787" stop-opacity="0"/>
	  </linearGradient>
	  <linearGradient id="k" x1="56.808" x2="62.852" y1="35.66" y2="61.4" gradientUnits="userSpaceOnUse">
		<stop stop-color="#FF5227"/>
		<stop offset="1" stop-color="#FF066C"/>
	  </linearGradient>
	  <linearGradient id="l" x1="49.059" x2="74.317" y1="17.556" y2="71.653" gradientUnits="userSpaceOnUse">
		<stop offset=".2" stop-color="#fff" stop-opacity="0"/>
		<stop offset=".5" stop-color="#fff"/>
		<stop offset=".8" stop-color="#fff" stop-opacity="0"/>
	  </linearGradient>
	  <linearGradient id="m" x1="59.586" x2="42.247" y1="26.197" y2="56.264" gradientUnits="userSpaceOnUse">
		<stop offset=".2" stop-color="#fff" stop-opacity="0"/>
		<stop offset=".5" stop-color="#fff"/>
		<stop offset=".8" stop-color="#fff" stop-opacity="0"/>
	  </linearGradient>
	</defs>
  </svg>