<svg xmlns="http://www.w3.org/2000/svg" width="186" height="46" viewBox="0 0 186 46" fill="none"><path d="M141.25 13.4003C140.45 12.5003 139.45 11.9003 138.45 11.4003C137.35 10.9003 136.25 10.7003 135.15 10.7003C134.15 10.7003 133.25 10.8003 132.45 11.1003C131.65 11.4003 130.95 11.7003 130.25 12.1003C129.65 12.5003 129.05 12.9003 128.65 13.4003C128.15 13.9003 127.85 14.3003 127.55 14.7003C126.75 13.4003 125.75 12.4003 124.45 11.7003C123.15 11.0003 121.85 10.6003 120.35 10.6003C118.85 10.6003 117.65 10.9003 116.65 11.4003C115.65 11.9003 114.75 12.5003 114.15 13.3003V11.0003L109.65 13.0003V34.6003H114.15V20.6003C114.15 19.7003 114.25 18.9003 114.55 18.1003C114.85 17.4003 115.25 16.8003 115.75 16.3003C116.25 15.8003 116.85 15.4003 117.45 15.2003C118.15 14.9003 118.85 14.8003 119.55 14.8003C120.95 14.8003 122.15 15.3003 123.15 16.3003C124.15 17.3003 124.65 18.7003 124.65 20.5003V34.5003H129.15V20.5003C129.15 19.6003 129.25 18.8003 129.55 18.0003C129.85 17.3003 130.25 16.7003 130.75 16.2003C131.25 15.7003 131.85 15.3003 132.45 15.1003C133.15 14.8003 133.85 14.7003 134.55 14.7003C135.95 14.7003 137.15 15.2003 138.15 16.2003C139.15 17.2003 139.65 18.6003 139.65 20.4003V34.4003H144.15V20.5003C144.15 19.0003 143.95 17.7003 143.45 16.5003C142.95 15.3003 142.15 14.2003 141.25 13.4003Z" fill="#F8003C"></path><path d="M166.25 14.2003C165.25 13.1003 163.95 12.2003 162.55 11.6003C161.05 11.0003 159.45 10.6003 157.65 10.6003C155.85 10.6003 154.25 10.9003 152.75 11.6003C151.25 12.2003 150.05 13.1003 149.05 14.2003C148.05 15.3003 147.25 16.6003 146.75 18.1003C146.25 19.6003 145.95 21.2003 145.95 22.8003C145.95 24.5003 146.25 26.1003 146.85 27.5003C147.45 29.0003 148.25 30.3003 149.25 31.4003C150.25 32.5003 151.55 33.4003 152.95 34.0003C154.45 34.6003 156.05 35.0003 157.85 35.0003C160.65 35.0003 162.95 34.3003 164.75 32.9003C166.55 31.5003 167.95 29.5003 168.85 27.0003H164.05C163.35 28.2003 162.55 29.1003 161.55 29.8003C160.55 30.5003 159.35 30.8003 157.85 30.8003C155.85 30.8003 154.25 30.2003 152.95 29.1003C151.65 27.9003 150.95 26.5003 150.55 24.8003H169.25V22.9003C169.25 21.2003 168.95 19.6003 168.45 18.2003C168.05 16.6003 167.25 15.3003 166.25 14.2003ZM150.75 20.5003C151.15 18.9003 151.95 17.5003 153.15 16.5003C154.35 15.4003 155.85 14.9003 157.75 14.9003C159.65 14.9003 161.15 15.4003 162.35 16.5003C163.55 17.6003 164.35 18.9003 164.75 20.5003H150.75Z" fill="#F8003C"></path><path d="M183.35 29.2C182.15 30.2 181.15 30.6999 180.25 30.5999C179.35 30.5999 178.65 30.1999 178.15 29.5999C177.55 28.8999 177.25 27.9999 177.25 26.7999V14.5H182.85L180.25 10.7H177.25V3.19995L172.45 5.79995V10.7H169.45V14.5H172.45V26.5999C172.45 28.3999 172.85 29.9 173.75 31.2C174.55 32.5 175.65 33.4 176.95 34C178.25 34.6 179.65 34.7999 181.15 34.5999C182.65 34.3999 184.15 33.6999 185.45 32.5999L183.35 29.2Z" fill="#F8003C"></path><path d="M71.5499 25.2L67.1499 11H65.4499H62.6499L57.3499 27.9L52.3499 11H47.6499L55.0499 34.6H58.0499H59.6499L64.0499 20.7L64.8499 18L69.3499 32.1L70.7499 27.9L71.5499 25.2Z" fill="#F8003C"></path><path d="M77.4499 11L72.4499 27.9L70.0499 34.6H73.1499H74.7499L82.1499 11H80.5499H77.4499Z" fill="#F8003C"></path><path d="M104.45 14.2003C103.45 13.1003 102.25 12.2003 100.85 11.6003C99.4499 11.0003 97.8499 10.6003 96.1499 10.6003C94.5499 10.6003 93.1499 10.9003 91.8499 11.4003C90.6499 11.9003 89.5499 12.6003 88.6499 13.6003V11.0003L84.1499 13.6003V40.8003L88.6499 43.5003V32.0003C89.5499 32.9003 90.5499 33.7003 91.8499 34.2003C93.0499 34.7003 94.5499 35.0003 96.1499 35.0003C97.8499 35.0003 99.4499 34.7003 100.85 34.0003C102.25 33.4003 103.45 32.5003 104.45 31.4003C105.45 30.3003 106.25 29.0003 106.75 27.5003C107.25 26.0003 107.55 24.4003 107.55 22.8003C107.55 21.1003 107.25 19.5003 106.75 18.1003C106.25 16.6003 105.45 15.3003 104.45 14.2003ZM102.55 25.9003C102.25 26.9003 101.75 27.7003 101.05 28.4003C100.45 29.1003 99.6499 29.7003 98.7499 30.1003C97.8499 30.5003 96.7499 30.7003 95.6499 30.7003C94.5499 30.7003 93.4499 30.5003 92.6499 30.1003C91.7499 29.7003 90.9499 29.1003 90.3499 28.4003C89.7499 27.7003 89.2499 26.8003 88.9499 25.9003C88.6499 24.9003 88.4499 23.9003 88.4499 22.8003C88.4499 21.7003 88.6499 20.7003 88.9499 19.7003C89.2499 18.7003 89.7499 17.9003 90.3499 17.2003C90.9499 16.5003 91.7499 15.9003 92.6499 15.5003C93.5499 15.1003 94.5499 14.9003 95.6499 14.9003C96.8499 14.9003 97.8499 15.1003 98.7499 15.5003C99.6499 15.9003 100.45 16.5003 101.05 17.2003C101.65 17.9003 102.15 18.8003 102.55 19.7003C102.85 20.7003 103.05 21.7003 103.05 22.8003C103.05 23.9003 102.95 25.0003 102.55 25.9003Z" fill="#F8003C"></path><path d="M21.6499 45.2C21.0499 45.6 20.2499 45.6 19.5499 45.2L1.84985 35C1.24985 34.6 0.849854 33.9 0.849854 33.2V12.8C0.849854 12.1 1.24985 11.4 1.84985 11L19.5499 0.8C20.1499 0.4 20.9499 0.4 21.6499 0.8L39.3498 11C39.9498 11.4 40.3498 12.1 40.3498 12.8V33.2C40.3498 33.9 39.9498 34.6 39.3498 35L35.4499 37.2L31.7499 39.3L21.6499 45.2Z" fill="url(#paint0_linear_192_624)"></path><g opacity="0.25"><path d="M25.5499 27.6003L25.2499 27.0003C25.1499 26.8003 24.8499 26.8003 24.7499 27.0003L22.1499 32.0003L20.0499 36.0003C19.9499 36.3003 19.5499 36.3003 19.3499 36.0003L17.6499 32.7003L17.5499 32.9003C17.3499 33.3003 17.3499 33.7003 17.5499 34.0003L19.3499 37.4003C19.4499 37.7003 19.8499 37.7003 20.0499 37.4003L22.1499 33.4003L24.7499 28.4003C24.8499 28.2003 25.1499 28.2003 25.2499 28.4003L25.5499 29.0003L27.9499 33.6003L31.1499 39.7003L31.7499 39.3003L27.9499 32.1003L25.5499 27.6003Z" fill="black"></path><path d="M30.9499 26.5004C31.1499 26.8004 31.5499 26.8004 31.7499 26.5004L39.7499 11.3004C39.6499 11.2004 39.5499 11.1004 39.3499 11.0004L39.1499 10.9004L31.7499 25.0004C31.5499 25.3004 31.1499 25.3004 30.9499 25.0004L29.3499 21.9004L29.2499 22.2004C29.0499 22.5004 29.0499 22.9004 29.2499 23.2004L30.9499 26.5004Z" fill="black"></path><path d="M11.7499 26.6003L6.04993 37.4003L6.64993 37.8003L11.9499 27.7003C12.0499 27.5003 12.0499 27.2003 11.9499 27.0003L11.7499 26.6003Z" fill="black"></path><path d="M21.4499 21.2004L23.6499 17.1004C23.8499 16.8004 23.8499 16.4004 23.6499 16.1004L23.5499 15.8004L21.5499 19.6004L18.6499 25.1004L16.6499 29.0004C16.4499 29.3004 16.0499 29.3004 15.9499 29.0004L13.9499 25.1004L13.3499 23.9004L10.9499 19.3004L5.5499 8.90039L4.6499 9.40039L10.6499 20.9004L13.0499 25.5004L13.6499 26.7004L15.6499 30.6004C15.8499 30.9004 16.2499 30.9004 16.3499 30.6004L18.3499 26.7004L21.4499 21.2004Z" fill="black"></path></g><path d="M9.04985 6.90039L13.1499 14.8004L15.5499 19.4004L15.9499 20.1004C16.0499 20.3004 16.4499 20.3004 16.5499 20.1004L19.1499 15.2004L21.1499 11.3004C21.3499 11.0004 21.7499 11.0004 21.9499 11.3004L23.7499 14.7004C23.9499 15.0004 23.9499 15.4004 23.7499 15.7004L21.5499 19.8004L18.6499 25.3004L16.6499 29.2004C16.4499 29.5004 16.0499 29.5004 15.9499 29.2004L13.9499 25.3004L13.3499 24.1004L10.9499 19.5004L5.54985 9.10039L9.04985 6.90039ZM39.1499 10.9004L31.7499 25.0004C31.5499 25.3004 31.1499 25.3004 30.9499 25.0004L29.1499 21.7004C28.9499 21.4004 28.9499 21.0004 29.1499 20.7004L35.3498 8.70039M31.7499 39.4004L27.9499 32.2004L25.5499 27.6004L25.2499 27.0004C25.1499 26.8004 24.8499 26.8004 24.7499 27.0004L22.1499 32.0004L20.0499 36.0004C19.9499 36.3004 19.5498 36.3004 19.3498 36.0004L17.5499 32.5004C17.3499 32.1004 17.3499 31.7004 17.5499 31.4004L19.6499 27.4004L22.5499 21.9004L24.5499 18.1004C24.7499 17.8004 25.1498 17.8004 25.3498 18.1004L27.3498 21.9004L27.9499 23.0004L30.3498 27.6004L35.4499 37.3004M2.34985 35.3004L9.24985 22.2004C9.44985 21.8004 10.0499 21.8004 10.2499 22.2004L11.9499 25.5004C12.0499 25.7004 12.0499 26.0004 11.9499 26.2004L6.04985 37.4004L2.34985 35.3004Z" fill="white"></path><defs><linearGradient id="paint0_linear_192_624" x1="29.7946" y1="5.2469" x2="5.70925" y2="51.8502" gradientUnits="userSpaceOnUse"><stop stop-color="#F8003C"></stop><stop offset="1" stop-color="#FF8438"></stop></linearGradient></defs></svg>